<?xml version="1.0" encoding="utf-8"?>
<!-- Generator: Adobe Illustrator 15.0.0, SVG Export Plug-In . SVG Version: 6.00 Build 0)  -->
<!DOCTYPE svg PUBLIC "-//W3C//DTD SVG 1.1//EN" "http://www.w3.org/Graphics/SVG/1.1/DTD/svg11.dtd">
<svg version="1.1" xmlns="http://www.w3.org/2000/svg" xmlns:xlink="http://www.w3.org/1999/xlink" x="0px" y="0px"
	 width="16.083px" height="20px" viewBox="0 0 16.083 20" enable-background="new 0 0 16.083 20" xml:space="preserve">
<g id="Layer_2">
</g>
<g id="Layer_1">
	<g>
		<path fill="#8DC63F" d="M13.485,0.663c0,0-0.206,1.497-1.808,2.821c-1.601,1.331-5.585,2.675-8.235,5.953
			c-2.644,3.279-1.36,6.5-0.679,7.466c0.388,0.553,0.98,0.68,1.413,0.689c-0.16-0.756-0.261-1.59-0.22-2.461
			c0.348-3.486,3.081-5.69,3.519-6.099C7.711,8.82,8.157,8.467,8.696,8.075C9.247,7.69,9.827,7.254,10.36,6.747
			c1.073-0.973,1.933-1.954,1.928-1.954c0.005,0-0.728,1.076-1.699,2.177c-0.465,0.557-1.057,1.104-1.563,1.525
			c-0.497,0.437-0.9,0.808-1.132,1.012c-0.219,0.208-0.937,0.83-1.627,1.839c-0.347,0.511-0.662,1.087-0.967,1.788
			c-0.296,0.602-0.445,1.316-0.448,2.033c-0.011,1.244,0.329,2.469,0.677,3.412c0.468,0.248,1.214,0.324,2.365-0.107
			c0.924-0.514,1.716-1.098,2.401-1.73l-1.092-1.441l2.046,0.438c0.68-0.811,1.215-1.682,1.637-2.588l-1.989-0.602l2.488-0.645
			c0.436-1.259,0.667-2.552,0.775-3.784L12.19,8.464L12.17,8.472l0.011-0.008L11.97,8.5l2.259-1.497
			C14.326,3.48,13.485,0.663,13.485,0.663z"/>
		<g>
			<path fill="#FFFFFF" d="M13,0.713C12.14,4.887,5.315,5.995,2.988,9.407c-1.513,2.218-3.018,7.709,0.899,8.474
				c0.247,0.048,0.828-0.056,0.771-0.419c-1.021-6.55,4.41-8.46,8.024-12.563c-0.283-0.045-0.566-0.09-0.849-0.135
				C9.743,7.819,4.041,10.969,4.37,15.298c0.164,2.153,0.006,3.788,2.325,3.756c1.566-0.022,2.884-1.258,3.996-2.206
				c0.09-0.076,0.126-0.206,0.051-0.305c-0.364-0.48-0.728-0.961-1.092-1.441c-0.245,0.163-0.49,0.325-0.734,0.488
				c0.682,0.146,1.364,0.291,2.046,0.438c0.275,0.059,0.572-0.035,0.743-0.26c0.638-0.837,1.155-1.653,1.637-2.588
				c0.081-0.156-0.013-0.271-0.166-0.318c-0.594-0.18-1.188-0.359-1.782-0.539c-0.397,0.489-0.322,0.602,0.224,0.338
				c0.553-0.143,1.105-0.286,1.659-0.43c1.416-0.366,1.235-3.054,1.37-4.161c0.027-0.221-0.264-0.281-0.429-0.252
				c-0.589,0.103-1.178,0.206-1.767,0.308c-0.953,0.167,0.332,0.301,0.037,0.515c0.325-0.236,0.109-0.54-0.252-0.479
				c0.089,0.501,0.298,0.543,0.627,0.126c0.362-0.241,0.725-0.481,1.087-0.721c0.075-0.049,0.764-0.382,0.763-0.614
				c-0.006-2.164-0.157-4.326-0.745-6.419c-0.108-0.385-1.074-0.123-0.966,0.259c0.355,1.264,0.526,2.561,0.668,3.863
				c0.29,2.665-0.183,2.458-2.009,3.669c-0.343,0.227-0.096,0.538,0.252,0.479c-0.018-0.169-0.035-0.338-0.052-0.506
				c-0.507,0.368,0.18,0.535,0.509,0.41c1.972-0.751,1.216,0.397,0.901,1.981c-0.284,1.425-1.098,1.232-2.447,1.582
				c-0.251,0.065-0.65,0.437-0.214,0.568c1.045,0.315,1.923,0.089,1.361,1.177c-0.813,1.576-0.819,1.353-2.479,0.997
				c-0.21-0.045-1.005,0.131-0.734,0.488c0.182,0.24,0.364,0.48,0.546,0.721c1.374,1.813-3.34,2.08-3.625,1.202
				c-0.931-2.876,0.3-5.409,2.243-7.464c1.64-1.735,3.452-3.139,4.82-5.136c0.275-0.401-0.662-0.347-0.849-0.135
				c-3.8,4.313-9.257,6.26-8.201,13.034c0.257-0.14,0.514-0.279,0.771-0.419c-3.064-0.598-2.066-5.099-1.309-6.75
				C4.29,8.079,7.218,6.491,9.473,5.208c1.909-1.086,4.013-2.243,4.498-4.597C14.057,0.195,13.076,0.343,13,0.713z"/>
		</g>
	</g>
</g>
</svg>
