<?xml version="1.0" encoding="utf-8"?>
<!-- Generator: Adobe Illustrator 15.0.0, SVG Export Plug-In . SVG Version: 6.00 Build 0)  -->
<!DOCTYPE svg PUBLIC "-//W3C//DTD SVG 1.1//EN" "http://www.w3.org/Graphics/SVG/1.1/DTD/svg11.dtd">
<svg version="1.1" id="doggyGhost" xmlns="http://www.w3.org/2000/svg" xmlns:xlink="http://www.w3.org/1999/xlink" x="0px" y="0px"
	 width="42px" height="42px" viewBox="0 0 42 42" enable-background="new 0 0 42 42" xml:space="preserve">
<path id="body_1_" fill="#ED1C24" d="M12.25,33.454C9.456,27.708,6.796,15.278,10.125,9.58c2.465-4.219,8.167-6.427,13.5-6.5
	s9.176,4.297,10.125,7c0.951,2.703,1.592,6.048,3.125,14.375c1.533,8.328,5.43,11.264,4.602,12.239
	c-0.697,0.822-4.166-0.765-5.809-2.583c-2.564-2.842-3.576-2.933-4.334-2.667c-0.842,0.295-1.582,1.5-0.865,2.798
	c0.531,0.961,3.551,3.285,2.615,4.619c-0.637,0.908-5.037-1.679-6.5-3.25c-1.551-1.667-1.924-2.197-2.764-2.514
	c-0.713-0.269-2.151-0.467-2.735,0.264s-1.146,1.886,0.417,3.333c1.991,1.843,7.702,3.427,5.917,4.084
	C24.252,41.943,15.591,40.323,12.25,33.454z"/>
<path id="ears_1_" fill="#ED1C24" d="M25.584,3.985c0,0,7.006-1.633,7.631-2.941s8,5.441,8.25,6.816s-3.625,1.75-5.25,0
	s-0.994-1.5-2.684-2.125C31.84,5.11,29.59,6.36,29.59,6.36 M13.984,6.746c-0.267,0.177-3.269-1.635-4.769-3.01
	S1.965,6.61,0.84,7.985s0.125,4.353,1.75,4.051s4.462-5.153,5.606-4.79s4.644,1.075,4.644,2.844"/>
<path id="inner-ears" fill="#C92027" d="M2.893,11.96c-0.502,0.127-1.516,0.087-0.016-1.975s4-3.563,4.813-3.313
	s0.507,0.574,0.507,0.574l-1,0.444L5.512,9.463c0,0-1.321,1.526-1.846,1.942C3.422,11.599,3.195,11.884,2.893,11.96z M34.27,6.015
	c0.236,0.104,0.563,0.366,0.732,0.512c0.322,0.279,0.766,0.892,1.074,1.183c0.449,0.423,0.889,0.8,1.223,0.948
	c0.361,0.16,1.094,0.315,1.471,0.347c0.279,0.023,1.117,0,1.117,0s-0.475-0.512-0.844-0.769c-0.563-0.393-3.291-2.708-3.875-3.174
	c-0.582-0.466-2.082-0.701-2.541-0.534s0.084,0.936,0.33,1.068C33.254,5.755,33.963,5.878,34.27,6.015z"/>
<path id="eyes" fill="#FFFFFF" d="M29.131,15.316c0.254,1.817-0.5,3.426-1.689,3.593c-1.186,0.167-2.357-1.171-2.611-2.989
	c-0.256-1.817,0.498-3.426,1.688-3.593C27.703,12.161,28.875,13.498,29.131,15.316z M17.018,14.577
	c-1.189,0.167-1.943,1.775-1.688,3.593c0.254,1.818,1.426,3.156,2.611,2.989c1.189-0.167,1.944-1.775,1.689-3.593
	C19.375,15.748,18.204,14.411,17.018,14.577z"/>
</svg>
