<?xml version="1.0" encoding="utf-8"?>
<!-- Generator: Adobe Illustrator 15.0.0, SVG Export Plug-In . SVG Version: 6.00 Build 0)  -->
<!DOCTYPE svg PUBLIC "-//W3C//DTD SVG 1.1//EN" "http://www.w3.org/Graphics/SVG/1.1/DTD/svg11.dtd">
<svg version="1.1" xmlns="http://www.w3.org/2000/svg" xmlns:xlink="http://www.w3.org/1999/xlink" x="0px" y="0px" width="25px"
	 height="20px" viewBox="0 0 25 20" enable-background="new 0 0 25 20" xml:space="preserve">
<g id="Layer_2">
	<path opacity="0.9" fill="#1C75BC" d="M6.958,13.468c0,0-1.528,4.81,1.476,2.816c3.004-1.994,4.965-1.335,7.679-0.651
		c2.714,0.685,6.155-1.649,4.907-3.873c-1.249-2.224-4.227-2.553-4.227-2.553"/>
</g>
<g id="Layer_1">
	<g>
		<path fill="#F7941E" d="M0.745,12.167C1.092,9.94,4.874,5.101,11.844,5.445c7.628,0.376,3.881,3.858,7.482,3.375
			c3.6-0.484,3.139-1.427,4.299-2.008c0.465-0.232-1.971,2.975,0.396,5.915c1.62,2.011-5.477-4.021-7.437,0.154
			C15.747,14.663,0.463,13.975,0.745,12.167z"/>
		<path fill="#FFFFFF" d="M0.708,12.16c0.23-1.244,0.982-2.313,1.802-3.242c0.828-0.94,1.827-1.734,2.93-2.35
			c2.202-1.264,4.861-1.667,7.362-1.381c1.243,0.14,2.56,0.341,3.655,1.153c0.553,0.4,0.886,1.055,1.097,1.613
			c0.119,0.277,0.255,0.506,0.489,0.624c0.232,0.122,0.536,0.151,0.832,0.14c0.595-0.035,1.223-0.139,1.814-0.269
			c0.595-0.135,1.188-0.333,1.651-0.708C22.575,7.555,22.766,7.32,23,7.096c0.116-0.112,0.247-0.215,0.387-0.302
			c0.087-0.046,0.104-0.078,0.254-0.125c0.229,0.019,0.166,0.184,0.178,0.19c-0.004,0.033-0.01,0.063-0.017,0.082l-0.04,0.122
			c-0.234,0.582-0.425,1.156-0.523,1.755c-0.213,1.19,0.033,2.43,0.729,3.383c0.079,0.123,0.18,0.233,0.269,0.35l0.156,0.199
			c0.025,0.035,0.053,0.075,0.079,0.121c0.021,0.067,0.075,0.061,0.069,0.297c-0.008,0.164-0.236,0.29-0.292,0.271
			c-0.08,0.007-0.11-0.003-0.148-0.008c-0.064-0.014-0.11-0.029-0.155-0.044l-0.236-0.097l-0.431-0.199
			c-0.562-0.269-1.114-0.528-1.68-0.749c-1.107-0.436-2.341-0.79-3.379-0.48c-0.51,0.154-0.908,0.51-1.169,0.986
			c-0.082,0.116-0.064,0.215-0.316,0.484c-0.173,0.16-0.342,0.241-0.507,0.315c-0.33,0.144-0.648,0.222-0.967,0.291
			c-2.533,0.471-5.033,0.39-7.524,0.176c-1.243-0.125-2.482-0.287-3.708-0.521c-0.611-0.125-1.224-0.245-1.825-0.417
			c-0.3-0.088-0.598-0.188-0.883-0.324C1.066,12.713,0.69,12.544,0.708,12.16z M0.782,12.174c-0.016,0.293,0.325,0.461,0.583,0.583
			c0.28,0.123,0.576,0.212,0.874,0.289c0.598,0.152,1.209,0.258,1.824,0.321c1.229,0.138,2.467,0.197,3.703,0.21
			s2.47,0.02,3.7-0.044c1.225-0.042,2.464-0.113,3.629-0.359c0.287-0.063,0.573-0.141,0.813-0.249
			c0.117-0.052,0.229-0.115,0.282-0.17c-0.015,0.06,0.09-0.157,0.171-0.303c0.34-0.607,0.945-1.129,1.64-1.315
			c1.403-0.362,2.697,0.111,3.856,0.577c0.584,0.25,1.145,0.542,1.694,0.829l0.406,0.207l0.191,0.087l0.068,0.023
			c-0.001,0.001,0.008,0-0.034,0.002c-0.016-0.02-0.206,0.081-0.209,0.205c0.001,0.157,0.012,0.08-0.002,0.08l-0.046-0.075
			L23.801,12.9c-0.093-0.136-0.195-0.262-0.278-0.404c-0.722-1.104-0.907-2.501-0.625-3.743c0.126-0.625,0.374-1.221,0.608-1.787
			l0.034-0.099l0.009-0.031c0.018-0.029-0.048,0.083,0.135,0.099c0.004-0.003-0.111,0.056-0.158,0.085
			c-0.125,0.075-0.241,0.163-0.351,0.264c-0.218,0.201-0.426,0.447-0.686,0.644c-1.078,0.749-2.356,0.926-3.601,1.08
			c-0.318,0.012-0.658,0.02-0.992-0.127c-0.345-0.144-0.563-0.479-0.699-0.758c-0.267-0.579-0.556-1.058-1.041-1.375
			c-0.472-0.321-1.042-0.511-1.624-0.64c-0.582-0.14-1.185-0.221-1.792-0.272c-2.423-0.23-4.9,0.028-7.116,1.088
			C4.522,7.447,3.501,8.158,2.628,9.029C1.797,9.921,1.035,10.96,0.782,12.174z"/>
	</g>
	<line fill="#F7941E" stroke="#FFFFFF" stroke-width="0.25" stroke-miterlimit="10" x1="4.05" y1="9.392" x2="5.638" y2="10.694"/>
	<line fill="#F7941E" stroke="#FFFFFF" stroke-width="0.25" stroke-miterlimit="10" x1="5.496" y1="9.249" x2="4.193" y2="10.836"/>
	<g>
		<path fill="#FFFFFF" d="M7.701,9.813c0.312,0.209,0.535,0.533,0.652,0.887c0.085,0.368,0.113,0.729,0.163,1.096
			c0.081,0.747-0.242,1.516-0.786,2.008L7.709,13.79C8,13.116,8.28,12.5,8.379,11.794c0.065-0.354-0.046-0.716-0.219-1.019
			c-0.145-0.317-0.296-0.625-0.477-0.944L7.701,9.813z"/>
	</g>
	<g>
		<path fill="#FFFFFF" d="M9.157,10.765c0.587-0.013,1.172,0.054,1.738,0.217c0.28,0.093,0.555,0.209,0.808,0.375
			c0.139,0.071,0.211,0.261,0.211,0.396L12,12.182c0.02,0.147,0.051,0.301-0.013,0.476c-0.06,0.194-0.295,0.276-0.45,0.265
			c-0.323-0.004-0.622-0.145-0.876-0.274c-0.526-0.273-0.999-0.623-1.43-1.021l0.015-0.02l1.531,0.81
			c0.265,0.115,0.501,0.249,0.764,0.27c0.126,0.004,0.224-0.013,0.271-0.107c0.055-0.096,0.056-0.245,0.052-0.383
			c-0.007-0.142-0.017-0.287-0.037-0.433c-0.001-0.158-0.033-0.266-0.172-0.336c-0.239-0.146-0.535-0.187-0.812-0.246
			c-0.56-0.122-1.124-0.238-1.689-0.393L9.157,10.765z"/>
	</g>
	<g>
		<path fill="#ED1C24" d="M4.131,13.089c0,0,0.634,2.127,1.155,1.753c1.283-0.921-0.476-2.006-0.476-2.006"/>
		<path fill="#FFFFFF" d="M4.143,13.085c0.201,0.358,0.372,0.714,0.503,1.088c0.063,0.187,0.134,0.379,0.266,0.523
			c0.065,0.069,0.148,0.13,0.226,0.129c0.072,0.001,0.118-0.063,0.202-0.137c0.274-0.271,0.371-0.616,0.193-0.944
			c-0.159-0.328-0.442-0.617-0.729-0.897l0.013-0.021c0.376,0.163,0.725,0.417,0.944,0.804c0.104,0.191,0.167,0.441,0.09,0.672
			c-0.065,0.232-0.226,0.4-0.403,0.526c-0.072,0.043-0.184,0.146-0.324,0.115C5,14.906,4.921,14.827,4.854,14.749
			c-0.134-0.159-0.255-0.325-0.372-0.496c-0.219-0.351-0.326-0.751-0.364-1.16L4.143,13.085z"/>
	</g>
	<path fill="none" stroke="#FFFFFF" stroke-width="0.25" stroke-miterlimit="10" d="M3.575,13.638c0,0,1.06-1.314,1.835-0.921"/>
</g>
</svg>
